<?xml version="1.0" standalone="no"?>
<!DOCTYPE svg PUBLIC "-//W3C//DTD SVG 20010904//EN"
 "http://www.w3.org/TR/2001/REC-SVG-20010904/DTD/svg10.dtd">
<svg version="1.0" xmlns="http://www.w3.org/2000/svg"
 width="512.000000pt" height="512.000000pt" viewBox="0 0 512.000000 512.000000"
 preserveAspectRatio="xMidYMid meet">

<g transform="translate(0.000000,512.000000) scale(0.100000,-0.100000)"
fill="#000000" stroke="none">
<path d="M1733 3875 c-84 -31 -121 -55 -182 -120 -54 -57 -101 -144 -123 -228
-12 -45 -11 -50 7 -63 22 -16 26 -13 85 65 13 18 43 44 67 58 38 22 51 24 120
20 43 -2 112 -15 153 -28 62 -19 98 -23 205 -23 133 -1 128 -2 259 50 24 9 14
-10 -29 -58 -89 -97 -171 -265 -200 -409 -12 -60 -16 -118 -13 -216 l3 -134
-61 6 c-72 8 -158 -8 -225 -41 -48 -24 -103 -81 -112 -115 -5 -18 0 -19 63
-13 91 9 208 -18 264 -60 49 -37 84 -104 93 -174 9 -79 5 -83 -64 -65 -45 12
-69 13 -109 4 -48 -9 -144 -65 -144 -82 0 -4 21 -11 47 -15 246 -37 341 -260
217 -507 -63 -124 -256 -333 -362 -393 -1 -1 3 -13 9 -28 15 -33 28 -33 103 3
34 15 113 47 176 70 63 23 131 48 150 56 68 26 176 46 309 57 325 28 545 -34
825 -229 26 -18 50 -33 54 -33 4 0 102 92 217 204 l210 204 -24 26 c-31 33
-38 33 -90 -6 -24 -17 -55 -31 -70 -31 -14 0 -69 27 -123 60 -90 56 -162 86
-297 127 -36 11 -91 16 -170 16 -117 0 -207 -14 -384 -61 -43 -11 -84 -19 -92
-17 -8 2 35 53 104 124 208 212 295 352 345 554 48 199 58 460 30 809 -13 163
-15 219 -5 284 24 173 101 260 270 303 61 16 71 22 69 39 -3 17 -12 21 -58 23
-123 7 -290 -31 -380 -86 -169 -105 -225 -223 -254 -537 -2 -27 4 -167 15
-310 29 -408 24 -561 -28 -745 -51 -183 -129 -316 -267 -456 -80 -80 -161
-142 -172 -131 -3 3 7 25 23 49 156 242 233 459 255 713 10 119 9 179 -7 400
-10 143 -20 316 -23 385 -10 267 47 419 221 594 97 97 104 122 25 94 -152 -53
-151 -53 -263 -51 -92 1 -132 7 -245 38 -74 20 -151 40 -170 45 -65 17 -180
10 -247 -15z"/>
</g>
</svg>
